<svg version="1.1" id="Layer_1" xmlns="http://www.w3.org/2000/svg" xmlns:xlink="http://www.w3.org/1999/xlink" x="0px" y="0px"
	 width="100%" viewBox="0 0 225 225" enable-background="new 0 0 225 225" xml:space="preserve">
<path fill="#010101" opacity="1.000000" stroke="none" 
	d="
M129.000000,226.000000 
	C120.645767,226.000000 112.291534,226.000000 103.328941,225.628784 
	C102.232338,225.163040 101.746811,225.050461 101.255470,224.976578 
	C65.296104,219.569519 39.079952,200.863113 24.273243,167.430588 
	C12.347645,140.503403 11.195769,112.234932 17.070284,83.791649 
	C25.475674,43.094337 48.488514,15.246792 89.812233,4.522991 
	C95.153221,3.136968 100.601448,2.164196 106.000000,1.000000 
	C114.354233,1.000000 122.708466,1.000000 131.693817,1.381253 
	C178.081665,5.479062 205.512192,37.993954 211.970795,72.709618 
	C193.787323,76.880318 175.599640,81.051979 157.315552,85.245758 
	C156.764999,82.986748 156.385254,81.213844 155.899414,79.470512 
	C153.092392,69.397675 148.256912,60.722492 138.979935,55.150539 
	C116.078339,41.395355 84.999023,52.391888 76.232330,77.970871 
	C68.747406,99.810005 69.171692,122.204643 75.046410,144.344818 
	C81.384239,168.230362 98.181969,179.399796 122.710396,176.912033 
	C138.699493,175.290375 150.735214,163.848099 155.815506,145.308624 
	C156.979248,141.061829 157.855026,136.736145 158.912460,132.237808 
	C177.307373,137.863770 195.132950,143.315598 213.122803,148.817673 
	C211.610657,153.697250 210.480148,158.022598 208.942795,162.198151 
	C197.665833,192.826996 177.523911,214.193008 145.215073,222.625595 
	C139.879913,224.018066 134.408463,224.888382 129.000000,226.000000 
z"/>
<path fill="#FEFEFE" opacity="1.000000" stroke="none" 
	d="
M129.468658,226.000000 
	C134.408463,224.888382 139.879913,224.018066 145.215073,222.625595 
	C177.523911,214.193008 197.665833,192.826996 208.942795,162.198151 
	C210.480148,158.022598 211.610657,153.697250 213.122803,148.817673 
	C195.132950,143.315598 177.307373,137.863770 158.912460,132.237808 
	C157.855026,136.736145 156.979248,141.061829 155.815506,145.308624 
	C150.735214,163.848099 138.699493,175.290375 122.710396,176.912033 
	C98.181969,179.399796 81.384239,168.230362 75.046410,144.344818 
	C69.171692,122.204643 68.747406,99.810005 76.232330,77.970871 
	C84.999023,52.391888 116.078339,41.395355 138.979935,55.150539 
	C148.256912,60.722492 153.092392,69.397675 155.899414,79.470512 
	C156.385254,81.213844 156.764999,82.986748 157.315552,85.245758 
	C175.599640,81.051979 193.787323,76.880318 211.970795,72.709618 
	C205.512192,37.993954 178.081665,5.479062 132.162476,1.381253 
	C163.300354,1.000000 194.600708,1.000000 225.950531,1.000000 
	C225.950531,75.888054 225.950531,150.776154 225.950531,226.000000 
	C193.979889,226.000000 161.958603,226.000000 129.468658,226.000000 
z"/>
<path fill="#FEFEFE" opacity="1.000000" stroke="none" 
	d="
M105.531342,1.000000 
	C100.601448,2.164196 95.153221,3.136968 89.812233,4.522991 
	C48.488514,15.246792 25.475674,43.094337 17.070284,83.791649 
	C11.195769,112.234932 12.347645,140.503403 24.273243,167.430588 
	C39.079952,200.863113 65.296104,219.569519 101.255470,224.976578 
	C101.746811,225.050461 102.232338,225.163040 102.860291,225.628784 
	C69.034454,226.000000 35.068909,226.000000 1.051680,226.000000 
	C1.051680,151.110489 1.051680,76.220924 1.051680,1.000000 
	C35.686859,1.000000 70.374771,1.000000 105.531342,1.000000 
z"/>
</svg>